<!DOCTYPE svg PUBLIC "-//W3C//DTD SVG 20010904//EN" "http://www.w3.org/TR/2001/REC-SVG-20010904/DTD/svg10.dtd">
<svg version="1.0" xmlns="http://www.w3.org/2000/svg" width="6000px" height="6000px" viewBox="0 0 12000 12000" preserveAspectRatio="xMidYMid meet">
<g id="layer101" fill="#645d5d" stroke="none">
<path d="M5485 11993 c-555 -34 -1263 -206 -1824 -442 -150 -63 -464 -216 -608 -297 -470 -263 -966 -643 -1348 -1035 -134 -137 -277 -293 -317 -345 -12 -16 -27 -34 -33 -40 -21 -23 -91 -108 -104 -128 -8 -12 -18 -23 -21 -26 -6 -5 -85 -110 -166 -222 -64 -89 -243 -377 -309 -498 -85 -156 -236 -461 -297 -601 -83 -190 -208 -576 -293 -904 -52 -201 -90 -384 -122 -590 l-28 -180 0 -680 c0 -728 -1 -711 56 -1055 127 -763 462 -1603 902 -2265 102 -153 284 -396 412 -550 134 -162 599 -626 760 -759 917 -761 2000 -1225 3155 -1351 199 -22 739 -30 1100 -16 231 9 341 18 505 41 616 90 1196 271 1770 555 432 214 823 467 1150 743 462 391 875 843 1160 1272 521 785 807 1514 965 2460 52 309 49 1561 -4 1885 -32 198 -86 445 -137 630 -37 137 -140 457 -170 530 -7 17 -13 32 -14 35 -6 27 -31 91 -43 115 -9 17 -16 33 -17 36 -1 24 -238 510 -309 634 -19 33 -44 78 -56 99 -12 22 -48 81 -80 132 l-58 93 -4 303 c-5 335 -17 433 -83 672 -80 292 -240 608 -422 836 -91 113 -308 329 -413 411 -290 226 -636 388 -983 460 -227 47 -757 49 -983 4 -136 -28 -328 -83 -419 -122 -87 -37 -110 -38 -214 -8 -52 14 -113 30 -135 35 -23 4 -72 15 -111 23 -38 8 -87 18 -109 21 -21 4 -41 8 -45 10 -3 2 -30 7 -60 10 -29 4 -57 8 -60 11 -4 2 -25 6 -46 9 -22 3 -65 9 -96 15 -31 5 -96 13 -145 16 -49 4 -109 9 -134 11 -62 5 -1041 12 -1115 7z"/>
</g>
<g id="layer102" fill="#e25e5e" stroke="none">
<path d="M5433 11989 c-532 -38 -1232 -212 -1775 -439 -141 -59 -529 -252 -674 -336 -127 -72 -378 -237 -541 -356 -476 -346 -936 -804 -1305 -1302 -312 -421 -628 -1014 -786 -1478 -147 -428 -249 -830 -309 -1213 l-28 -180 0 -680 c0 -728 -1 -711 56 -1055 127 -763 462 -1603 902 -2265 102 -153 284 -396 412 -550 134 -162 599 -626 760 -759 917 -761 2000 -1225 3155 -1351 199 -22 739 -30 1100 -16 231 9 341 18 505 41 616 90 1196 271 1770 555 432 214 823 467 1150 743 462 391 875 843 1160 1272 521 785 807 1514 965 2460 52 309 49 1561 -4 1885 -121 740 -360 1404 -751 2085 -79 138 -141 230 -154 230 -4 0 -22 -66 -40 -147 -64 -288 -182 -590 -311 -798 -358 -575 -949 -980 -1615 -1106 -137 -26 -551 -38 -714 -20 -353 38 -728 181 -1057 402 -443 297 -800 780 -948 1284 -76 259 -78 281 -83 639 -5 371 -2 415 57 643 167 648 578 1170 1197 1522 50 28 102 60 114 70 l23 18 -50 16 c-128 43 -476 113 -769 157 -206 31 -1128 50 -1412 29z"/>
</g>
<g id="layer103" fill="#ffffff" stroke="none">
<path d="M7037 11222 l-37 -38 152 -247 151 -248 107 -57 107 -57 471 -485 470 -485 -96 -97 -96 -97 50 -55 c27 -31 379 -397 783 -814 l735 -758 165 171 c91 93 212 217 267 275 l102 105 -615 635 c-339 349 -691 714 -784 810 l-168 175 -99 -98 -98 -97 -469 486 -470 485 -56 111 -55 110 -235 154 c-128 85 -236 154 -239 154 -3 0 -23 -17 -43 -38z"/>
<path d="M9757 11250 c-53 -14 -106 -43 -148 -82 -20 -18 -169 -170 -330 -338 -161 -168 -344 -358 -408 -423 l-116 -117 250 -250 c137 -138 253 -250 256 -250 3 0 197 198 430 440 495 513 494 511 494 664 0 81 -3 98 -31 156 -59 123 -164 197 -290 205 -38 2 -86 0 -107 -5z"/>
<path d="M8000 9509 l-135 -141 -77 16 c-142 30 -292 18 -418 -31 -334 -132 -532 -491 -469 -852 l12 -66 211 217 211 217 206 -57 205 -56 55 -213 55 -213 -210 -217 -210 -217 29 -8 c17 -5 73 -12 125 -15 333 -20 630 188 741 517 25 74 33 118 37 200 5 118 -12 254 -31 244 -7 -4 12 18 42 49 l55 56 -20 23 c-10 13 -90 98 -176 189 -87 92 -158 173 -158 180 0 8 42 55 92 106 l92 93 -59 60 c-33 33 -62 60 -65 60 -3 0 -66 -64 -140 -141z"/>
<path d="M6344 8316 c-100 -77 -318 -247 -485 -376 -648 -500 -1019 -795 -1019 -809 0 -10 162 -168 310 -303 63 -57 545 -491 1070 -963 1262 -1136 1494 -1348 1519 -1388 25 -41 27 -89 5 -111 -31 -32 -95 -16 -214 52 -91 52 -431 267 -2020 1277 -1175 746 -1533 972 -1576 993 -31 14 -43 11 -525 -151 -660 -221 -1035 -353 -1087 -384 -81 -46 -148 -130 -166 -207 -10 -40 34 -126 84 -166 66 -52 244 -130 790 -343 575 -225 1925 -754 3205 -1257 1683 -661 2254 -881 2342 -904 75 -20 183 -21 226 -2 18 7 47 30 65 50 58 67 70 -9 -257 1641 -293 1480 -418 2115 -432 2201 l-11 71 -57 13 c-86 19 -294 91 -415 144 -446 195 -825 523 -1086 942 -34 54 -67 104 -74 110 -8 9 -57 -24 -192 -130z"/>
</g>


</svg>